<?xml version="1.0" encoding="UTF-8"?>
<svg version="1.1" xmlns="http://www.w3.org/2000/svg" width="512" height="512">
<path d="M0 0 C168.96 0 337.92 0 512 0 C512 168.96 512 337.92 512 512 C343.04 512 174.08 512 0 512 C0 343.04 0 174.08 0 0 Z " fill="#3B4B8C" transform="translate(0,0)"/>
<path d="M0 0 C168.96 0 337.92 0 512 0 C512 168.96 512 337.92 512 512 C343.04 512 174.08 512 0 512 C0 343.04 0 174.08 0 0 Z M77.2890625 82.0078125 C74.64979642 85.45777465 72.5467301 88.95635472 70.5625 92.8125 C70.08526489 93.73470337 70.08526489 93.73470337 69.59838867 94.67553711 C63.25848377 108.00213668 63.58202224 121.72661259 63.65942383 136.13012695 C63.66027131 138.34876494 63.6597926 140.56740376 63.65809631 142.78604126 C63.65723966 148.77482463 63.67481193 154.76342576 63.69581819 160.75216699 C63.71464012 167.02350442 63.71633977 173.29484656 63.71989441 179.56620789 C63.72814324 190.08119628 63.74685009 200.5961287 63.77368164 211.11108398 C63.8012734 221.93529939 63.82248183 232.7594967 63.83520508 243.58374023 C63.83599325 244.25239883 63.83678142 244.92105743 63.83759347 245.60997842 C63.84150895 248.96487609 63.84529999 252.31977389 63.84902918 255.67467177 C63.88034158 283.44982737 63.93307056 311.22490899 64 339 C67.96 339.66 71.92 340.32 76 341 C76.37105954 350.52386165 76.37105954 350.52386165 74.67578125 352.69921875 C73.16870291 353.86904879 71.58740444 354.94173037 70 356 C70.7425 356.680625 71.485 357.36125 72.25 358.0625 C75.24381953 361.03073132 77.03437285 364.28714872 79 368 C82.56565282 364.15760995 83.60851957 359.46735981 85.0625 354.5625 C85.57249809 352.87578087 86.08417 351.18956676 86.59765625 349.50390625 C86.83629395 348.72031738 87.07493164 347.93672852 87.32080078 347.12939453 C88.09574704 344.69981823 88.99433728 342.3433385 90 340 C92.97 340 95.94 340 99 340 C99.23187012 340.70084717 99.46374023 341.40169434 99.70263672 342.1237793 C100.75850109 345.3122153 101.81672644 348.49986286 102.875 351.6875 C103.23980469 352.79029297 103.60460937 353.89308594 103.98046875 355.02929688 C104.33496094 356.09599609 104.68945312 357.16269531 105.0546875 358.26171875 C105.37937012 359.24100342 105.70405273 360.22028809 106.03857422 361.22924805 C106.94987046 363.85553069 107.9451193 366.42847176 109 369 C106.69 369 104.38 369 102 369 C101.34 366.69 100.68 364.38 100 362 C96.04 362 92.08 362 88 362 C87.67 364.31 87.34 366.62 87 369 C73.7365369 369.5803832 73.7365369 369.5803832 69.48046875 365.70703125 C67.80135584 363.2007343 66.3728912 360.68249309 65 358 C64.67 358 64.34 358 64 358 C63.89940705 363.10044922 63.8277399 368.20029291 63.78027344 373.30151367 C63.76043952 375.02850427 63.7333636 376.75543039 63.69824219 378.48217773 C63.31452207 397.86568668 65.86393967 417.38705187 79.4375 432.375 C83.54230865 436.16165478 87.879255 438.89371239 92.8125 441.4375 C93.42730225 441.7557373 94.04210449 442.07397461 94.67553711 442.40185547 C104.62028325 447.13162716 115.26250005 448.45015737 126.15472412 448.38768005 C127.88073613 448.39575836 127.88073613 448.39575836 129.64161706 448.40399987 C133.45878119 448.4181926 137.27559427 448.41119705 141.09277344 448.40405273 C143.84540698 448.40812116 146.59802313 448.41662743 149.35064697 448.42485046 C156.02886602 448.4419729 162.7069907 448.44289202 169.38522598 448.43763756 C174.81908539 448.43358167 180.2529171 448.43505619 185.68677521 448.44038582 C186.46275742 448.44113424 187.23873963 448.44188266 188.03823645 448.44265376 C189.61511309 448.44418539 191.19198971 448.44572374 192.76886633 448.44726873 C207.52929547 448.46097054 222.28967149 448.45557286 237.0500994 448.44408352 C250.52054888 448.43415776 263.99086086 448.44708455 277.46128914 448.47101771 C291.32817921 448.49546756 305.19500541 448.50500191 319.06191659 448.49836498 C326.8328808 448.49488526 334.60373941 448.49702163 342.37468719 448.51461601 C348.99119562 448.52941206 355.6075241 448.52987786 362.22402927 448.5125451 C365.59240478 448.50409208 368.96019926 448.50395235 372.32859802 448.51719666 C393.86574072 448.59536842 415.63335223 447.84973794 432.4375 432.4375 C448.80422549 414.59266301 448.65491142 391.78839864 448 369 C446.07994141 368.58041016 446.07994141 368.58041016 444.12109375 368.15234375 C440.86716098 367.44126277 440.22915689 367.28829415 438.0625 364.5625 C437.30507966 362.73578034 436.62534713 360.87604138 436 359 C437.98 359 439.96 359 442 359 C442.2475 359.639375 442.495 360.27875 442.75 360.9375 C443.81562433 363.18741541 443.81562433 363.18741541 446.125 363.75 C446.74375 363.8325 447.3625 363.915 448 364 C448 361.36 448 358.72 448 356 C447.36191406 355.73445313 446.72382813 355.46890625 446.06640625 355.1953125 C445.24011719 354.84210938 444.41382813 354.48890625 443.5625 354.125 C442.73878906 353.77695312 441.91507812 353.42890625 441.06640625 353.0703125 C439 352 439 352 438 350 C437.6875 346.5625 437.6875 346.5625 438 343 C440.8148407 339.75210688 443.8993873 339.61790054 448 339 C448.09143938 310.60871149 448.16213589 282.21744164 448.20426132 253.82603446 C448.20926357 250.46686778 448.21444092 247.1077014 448.21972656 243.74853516 C448.2207758 243.0798438 448.22182505 242.41115244 448.22290608 241.72219771 C448.24026586 230.92416216 448.27177884 220.12621263 448.30861118 209.32822794 C448.34614439 198.23143324 448.36796288 187.13468572 448.37635398 176.03783083 C448.38155194 169.81205606 448.39370112 163.58647577 448.42292023 157.36076355 C448.45024585 151.49045312 448.45841051 145.62041568 448.45243073 139.75004768 C448.45352333 137.60560175 448.46137419 135.46114586 448.4768219 133.31675529 C448.6130369 113.41722141 446.50683696 94.96496674 432.4375 79.625 C414.65641232 63.12929215 391.162671 63.40683777 368.43725586 63.48242188 C365.68240566 63.47918992 362.92758194 63.47000838 360.17274475 63.46118164 C353.50473541 63.4435126 346.83690744 63.44718387 340.16889136 63.4588322 C334.74417169 63.46791169 329.31950241 63.46907116 323.8947773 63.46473694 C323.11904832 63.46412401 322.34331935 63.46351107 321.54408344 63.46287957 C319.9676072 63.46160051 318.39113098 63.46030365 316.81465477 63.4589892 C302.07615467 63.44761764 287.33775453 63.46064349 272.59927083 63.48219067 C259.98499451 63.50006209 247.37086547 63.49695054 234.7565918 63.47851562 C220.06480779 63.45705425 205.37311108 63.44871225 190.68131357 63.46096468 C189.11134471 63.46223872 187.54137583 63.4634962 185.97140694 63.46473694 C185.19919403 63.46535404 184.42698112 63.46597114 183.63136781 63.46660694 C178.21999758 63.47004382 172.80868327 63.46426768 167.3973217 63.45481873 C160.79294955 63.44353872 154.18876728 63.44676382 147.58441656 63.4679417 C144.22221982 63.47837191 140.8605965 63.4805185 137.49836349 63.46934509 C115.13367473 63.40190875 93.62751723 64.49852388 77.2890625 82.0078125 Z " fill="#FEFEFE" transform="translate(0,0)"/>
<path d="M0 0 C12.87 0 25.74 0 39 0 C44.83903115 19.46343715 50.0283225 39.06718698 55.10719299 58.74005127 C56.11774266 62.64707279 57.14339249 66.54795306 58.22119141 70.43701172 C58.40945999 71.12125717 58.59772858 71.80550262 58.79170227 72.51048279 C59.2932936 74.32473032 59.80222526 76.13694409 60.31176758 77.94897461 C60.94588474 80.76009989 61.14286369 83.13369257 61 86 C61.66 86 62.32 86 63 86 C63.19529297 84.24042969 63.19529297 84.24042969 63.39453125 82.4453125 C63.89012666 78.50303695 64.70135876 74.72802444 65.6875 70.875 C65.85975098 70.19888672 66.03200195 69.52277344 66.20947266 68.82617188 C67.93943271 62.09938735 69.79602849 55.40673894 71.64501953 48.71191406 C73.82086417 40.78416494 75.82210511 32.81819231 77.73193359 24.82226562 C79.78976013 16.37762108 82.38700481 8.3615846 85 0 C98.2 0 111.4 0 125 0 C125 4.95 125 9.9 125 15 C126.5675 14.195625 128.135 13.39125 129.75 12.5625 C138.99877588 7.81641764 150.43694689 7.46032862 160.5 10.125 C167.77832537 12.73490455 173.29091117 17.17527654 177 24 C178.95094655 30.2483018 179.13016795 37.43394768 176.25 43.375 C174.4554793 46.48977521 172.3694348 49.29207451 170 52 C172.97 51.01 175.94 50.02 179 49 C179 32.83 179 16.66 179 0 C192.2 0 205.4 0 219 0 C220.134375 3.815625 221.26875 7.63125 222.4375 11.5625 C222.79384521 12.75174072 223.15019043 13.94098145 223.51733398 15.16625977 C225.07080912 20.44327753 226.44198984 25.52206925 227 31 C227.66386719 30.71125 228.32773437 30.4225 229.01171875 30.125 C229.89472656 29.75375 230.77773438 29.3825 231.6875 29 C232.55761719 28.62875 233.42773438 28.2575 234.32421875 27.875 C237 27 237 27 242 27 C244.97 34.59 247.94 42.18 251 50 C253.36864606 42.19115793 253.36864606 42.19115793 255.4296875 34.3359375 C255.66816406 33.35753906 255.90664063 32.37914062 256.15234375 31.37109375 C256.628343 29.39762657 257.10235196 27.4236781 257.57421875 25.44921875 C259.69000036 16.79374854 262.32307759 8.56615171 265 0 C277.87 0 290.74 0 304 0 C304 42.57 304 85.14 304 129 C296.08 129 288.16 129 280 129 C280 96.33 280 63.66 280 30 C279.34 30 278.68 30 278 30 C277.83564453 31.90458984 277.83564453 31.90458984 277.66796875 33.84765625 C277.0693125 39.20630878 275.7461971 44.24998306 274.3125 49.4375 C272.08190825 57.73742311 270.02033804 66.05477199 268.125 74.4375 C265.96013953 83.96259507 263.69789162 93.45946967 261.34051514 102.93850708 C260.99309481 104.33603957 260.64690981 105.73387983 260.30206299 107.13204956 C258.47620254 114.52585724 256.54198746 121.81475372 254 129 C250.04180389 129.08678303 246.08385066 129.14031733 242.125 129.1875 C240.99707031 129.21263672 239.86914062 129.23777344 238.70703125 129.26367188 C237.09248047 129.27817383 237.09248047 129.27817383 235.4453125 129.29296875 C233.95281982 129.31653442 233.95281982 129.31653442 232.43017578 129.34057617 C231.22723877 129.17199097 231.22723877 129.17199097 230 129 C228.01547361 126.02321041 227.45345138 124.260063 226.703125 120.828125 C226.46932129 119.78124512 226.23551758 118.73436523 225.99462891 117.65576172 C225.74890137 116.53186035 225.50317383 115.40795898 225.25 114.25 C222.44973528 101.75313922 219.30976099 89.37052513 216 77 C212.7 77.99 209.4 78.98 206 80 C205.34 96.17 204.68 112.34 204 129 C196.08 129 188.16 129 180 129 C177.60043729 126.60043729 178.53424018 120.4714488 178.37890625 117.22265625 C178.32736325 113.91423026 178.32736325 113.91423026 176 112 C172.63091436 112.35389555 170.44862451 113.92383624 167.75 115.875 C159.56541284 121.48844218 151.52569295 123.17884724 141.6875 123.1875 C140.96626953 123.19974609 140.24503906 123.21199219 139.50195312 123.22460938 C134.35604523 123.23845487 129.9486185 122.41468981 125 121 C125.020625 122.134375 125.04125 123.26875 125.0625 124.4375 C125 128 125 128 124 129 C122.21928754 129.08726223 120.4351686 129.10699041 118.65234375 129.09765625 C117.57275391 129.09443359 116.49316406 129.09121094 115.38085938 129.08789062 C114.24455078 129.07951172 113.10824219 129.07113281 111.9375 129.0625 C110.79732422 129.05798828 109.65714844 129.05347656 108.48242188 129.04882812 C105.65489649 129.03699747 102.8274736 129.0205141 100 129 C99.67 125.7 99.34 122.4 99 119 C98.34402832 119.24234375 97.68805664 119.4846875 97.01220703 119.734375 C94.05102128 120.82624991 91.08804555 121.9131828 88.125 123 C87.09246094 123.3815625 86.05992187 123.763125 84.99609375 124.15625 C84.00996094 124.5171875 83.02382812 124.878125 82.0078125 125.25 C80.64100342 125.75273437 80.64100342 125.75273437 79.24658203 126.265625 C77 127 77 127 75 127 C75 127.66 75 128.32 75 129 C73.58461283 129.33872513 72.16762037 129.67074624 70.75 130 C69.96109375 130.185625 69.1721875 130.37125 68.359375 130.5625 C66 131 66 131 62 131 C62 130.34 62 129.68 62 129 C61.15695313 129.03480469 60.31390625 129.06960938 59.4453125 129.10546875 C58.34960938 129.13253906 57.25390625 129.15960938 56.125 129.1875 C55.03445312 129.22230469 53.94390625 129.25710938 52.8203125 129.29296875 C51.88960937 129.19628906 50.95890625 129.09960938 50 129 C47.99510121 125.99265182 47.43043232 124.16163075 46.66796875 120.6875 C46.42949219 119.62208984 46.19101563 118.55667969 45.9453125 117.45898438 C45.69523437 116.31751953 45.44515625 115.17605469 45.1875 114 C43.4208861 106.1277961 41.61600308 98.2859942 39.5 90.5 C36.90479042 80.89238118 34.70016202 71.20274963 32.4921875 61.5 C31.52644714 57.26336649 30.5336229 53.03499036 29.5078125 48.8125 C29.27449219 47.85069824 29.04117188 46.88889648 28.80078125 45.89794922 C28.36178024 44.09658595 27.91926967 42.29607306 27.47265625 40.49658203 C27.27800781 39.69591309 27.08335937 38.89524414 26.8828125 38.0703125 C26.62588623 37.03028076 26.62588623 37.03028076 26.36376953 35.96923828 C26 34 26 34 26 30 C25.34 30 24.68 30 24 30 C24 62.67 24 95.34 24 129 C16.08 129 8.16 129 0 129 C0 86.43 0 43.86 0 0 Z " fill="#4C90E1" transform="translate(104,151)"/>
<path d="M0 0 C12.87 0 25.74 0 39 0 C44.83903115 19.46343715 50.0283225 39.06718698 55.10719299 58.74005127 C56.11774266 62.64707279 57.14339249 66.54795306 58.22119141 70.43701172 C58.40945999 71.12125717 58.59772858 71.80550262 58.79170227 72.51048279 C59.2932936 74.32473032 59.80222526 76.13694409 60.31176758 77.94897461 C60.94588474 80.76009989 61.14286369 83.13369257 61 86 C61.66 86 62.32 86 63 86 C63.19529297 84.24042969 63.19529297 84.24042969 63.39453125 82.4453125 C63.89012666 78.50303695 64.70135876 74.72802444 65.6875 70.875 C65.85975098 70.19888672 66.03200195 69.52277344 66.20947266 68.82617188 C67.93943271 62.09938735 69.79602849 55.40673894 71.64501953 48.71191406 C73.82086417 40.78416494 75.82210511 32.81819231 77.73193359 24.82226562 C79.78976013 16.37762108 82.38700481 8.3615846 85 0 C97.87 0 110.74 0 124 0 C124 18.75609756 124 18.75609756 119 24 C117.11036537 29.63391067 116.90977679 35.55573862 119.33984375 41.00390625 C119.88769531 42.01324219 120.43554688 43.02257812 121 44.0625 C125.24672306 52.0545258 125.24672306 52.0545258 124.9140625 56.921875 C123.18238939 60.85884121 119.41115627 62.69819594 115.890625 64.94140625 C112.25088289 67.53349286 110.11758705 70.48377145 107.73046875 74.21484375 C106 76 106 76 100 77 C100 61.49 100 45.98 100 30 C99.34 30 98.68 30 98 30 C97.89171875 31.26328125 97.7834375 32.5265625 97.671875 33.828125 C96.9468205 40.32319362 95.19569278 46.50304257 93.37182617 52.76513672 C91.93532484 57.82793288 90.85557595 62.43631729 90.72265625 67.7109375 C90.39172024 73.58361388 90.039977 78.459112 86 83 C75.76702355 89.74244179 62.69505652 92.78989606 51 96 C53.18086019 103.62138347 55.79801558 110.99351509 58.65820312 118.3828125 C58.96048828 119.18203125 59.26277344 119.98125 59.57421875 120.8046875 C59.84838623 121.51608887 60.12255371 122.22749023 60.4050293 122.96044922 C61 125 61 125 61 129 C59.20906809 129.08086147 57.41710372 129.13912702 55.625 129.1875 C54.62726563 129.22230469 53.62953125 129.25710938 52.6015625 129.29296875 C51.74304688 129.19628906 50.88453125 129.09960938 50 129 C47.99510121 125.99265182 47.43043232 124.16163075 46.66796875 120.6875 C46.42949219 119.62208984 46.19101563 118.55667969 45.9453125 117.45898438 C45.69523437 116.31751953 45.44515625 115.17605469 45.1875 114 C43.4208861 106.1277961 41.61600308 98.2859942 39.5 90.5 C36.90479042 80.89238118 34.70016202 71.20274963 32.4921875 61.5 C31.52644714 57.26336649 30.5336229 53.03499036 29.5078125 48.8125 C29.27449219 47.85069824 29.04117188 46.88889648 28.80078125 45.89794922 C28.36178024 44.09658595 27.91926967 42.29607306 27.47265625 40.49658203 C27.27800781 39.69591309 27.08335937 38.89524414 26.8828125 38.0703125 C26.62588623 37.03028076 26.62588623 37.03028076 26.36376953 35.96923828 C26 34 26 34 26 30 C25.34 30 24.68 30 24 30 C24 62.67 24 95.34 24 129 C16.08 129 8.16 129 0 129 C0 86.43 0 43.86 0 0 Z " fill="#FCFDFD" transform="translate(104,151)"/>
<path d="M0 0 C12.87 0 25.74 0 39 0 C39 42.57 39 85.14 39 129 C31.08 129 23.16 129 15 129 C15 96.33 15 63.66 15 30 C14.34 30 13.68 30 13 30 C12.89042969 31.26972656 12.78085937 32.53945312 12.66796875 33.84765625 C12.0693125 39.20630878 10.7461971 44.24998306 9.3125 49.4375 C7.08190825 57.73742311 5.02033804 66.05477199 3.125 74.4375 C0.96013953 83.96259507 -1.30210838 93.45946967 -3.65948486 102.93850708 C-4.00690519 104.33603957 -4.35309019 105.73387983 -4.69793701 107.13204956 C-6.52379746 114.52585724 -8.45801254 121.81475372 -11 129 C-14.95819611 129.08678303 -18.91614934 129.14031733 -22.875 129.1875 C-24.00292969 129.21263672 -25.13085938 129.23777344 -26.29296875 129.26367188 C-27.90751953 129.27817383 -27.90751953 129.27817383 -29.5546875 129.29296875 C-31.04718018 129.31653442 -31.04718018 129.31653442 -32.56982422 129.34057617 C-33.37178223 129.22818604 -34.17374023 129.1157959 -35 129 C-37.00489879 125.99265182 -37.56956768 124.16163075 -38.33203125 120.6875 C-38.57099121 119.62047852 -38.80995117 118.55345703 -39.05615234 117.45410156 C-39.30574707 116.31424805 -39.5553418 115.17439453 -39.8125 114 C-41.84068309 104.92410073 -43.9760763 95.90939523 -46.52661133 86.96484375 C-47.71405385 82.66864824 -48 79.58697055 -48 75 C-41.4 72.69 -34.8 70.38 -28 68 C-24 80.5 -24 80.5 -24 85 C-23.34 85 -22.68 85 -22 85 C-21.89042969 84.32195312 -21.78085937 83.64390625 -21.66796875 82.9453125 C-19.17385958 68.30509447 -19.17385958 68.30509447 -17 64 C-13.8125 62.375 -13.8125 62.375 -11 62 C-11.495 61.0409375 -11.495 61.0409375 -12 60.0625 C-14.80658021 51.46734812 -12.05523751 42.96785496 -9.85668945 34.52807617 C-9.32063155 32.46873843 -8.80052678 30.40591087 -8.28320312 28.34179688 C-5.84651061 18.76316922 -2.9583385 9.46668319 0 0 Z " fill="#FDFDFD" transform="translate(369,151)"/>
<path d="M0 0 C12.87 0 25.74 0 39 0 C40.7015625 5.6925 40.7015625 5.6925 42.4375 11.5 C42.97201782 13.27020508 42.97201782 13.27020508 43.51733398 15.07617188 C45.18839376 20.73780078 46.4929179 26.11499083 47 32 C44.23113877 33.00577013 41.46015896 34.00480147 38.6875 35 C37.90181641 35.28617188 37.11613281 35.57234375 36.30664062 35.8671875 C35.54931641 36.13789063 34.79199219 36.40859375 34.01171875 36.6875 C33.31522217 36.93886719 32.61872559 37.19023437 31.90112305 37.44921875 C30 38 30 38 27 38 C26.67 35.36 26.34 32.72 26 30 C25.34 30 24.68 30 24 30 C24 33.3 24 36.6 24 40 C20.56475792 41.33941554 17.12705443 42.67174415 13.6875 44 C12.71103516 44.3815625 11.73457031 44.763125 10.72851562 45.15625 C9.32182617 45.69765625 9.32182617 45.69765625 7.88671875 46.25 C7.02264404 46.58515625 6.15856934 46.9203125 5.26831055 47.265625 C3 48 3 48 0 48 C0 32.16 0 16.32 0 0 Z " fill="#FDFEFE" transform="translate(284,151)"/>
<path d="M0 0 C4.77090485 1.67865171 7.21992717 3.80957707 10 8 C10.89157247 13.25720316 11.25883822 19.22856565 9.01171875 24.17578125 C6.16222276 27.73103476 2.89555485 29.69810459 -1.55078125 30.40625 C-6.68658157 30.58059117 -10.0971134 30.54411699 -14.125 27.125 C-17.93164998 23.35477729 -18.24976065 20.6659159 -18.4375 15.3125 C-18.42263844 10.48744626 -18.32274665 7.40653382 -15.125 3.6875 C-10.54213075 -0.7071838 -6.12573784 -0.51833166 0 0 Z " fill="#F2F3F7" transform="translate(393,339)"/>
<path d="M0 0 C4.5478125 -0.12375 4.5478125 -0.12375 9.1875 -0.25 C10.60712036 -0.30462402 10.60712036 -0.30462402 12.05541992 -0.36035156 C16.16263112 -0.41441102 18.46153605 -0.31393336 22.08203125 1.796875 C24 4 24 4 24.5 7.5 C23.99603747 11.02773771 23.42668267 12.47220555 21 15 C21.639375 15.185625 22.27875 15.37125 22.9375 15.5625 C25 17 25 17 26 20.3125 C26 24 26 24 24.1875 26.875 C21.11945454 29.85538702 19.58600541 30.12396206 15.4296875 30.09765625 C14.62257324 30.09515869 13.81545898 30.09266113 12.98388672 30.09008789 C11.9579541 30.08098389 10.93202148 30.07187988 9.875 30.0625 C4.986875 30.0315625 4.986875 30.0315625 0 30 C0 20.1 0 10.2 0 0 Z " fill="#F5F6F9" transform="translate(292,339)"/>
<path d="M0 0 C17.27678571 -0.80357143 17.27678571 -0.80357143 21.5 2.8125 C24.88928543 6.46319308 25.17749117 10.02899321 25.25 14.875 C25.27578125 15.90367187 25.3015625 16.93234375 25.328125 17.9921875 C24.82396184 22.61368317 22.54833229 26.04305643 19 29 C15.23508833 30.25497056 11.72793525 30.10661648 7.8125 30.0625 C5.234375 30.041875 2.65625 30.02125 0 30 C0 20.1 0 10.2 0 0 Z " fill="#F6F7FA" transform="translate(158,339)"/>
<path d="M0 0 C3.3 0 6.6 0 10 0 C10.27714844 0.99902344 10.55429688 1.99804688 10.83984375 3.02734375 C11.20555549 4.33077791 11.57145038 5.63416069 11.9375 6.9375 C12.11990234 7.59685547 12.30230469 8.25621094 12.49023438 8.93554688 C13.22596101 12.23821173 13.22596101 12.23821173 15 15 C16.32 10.05 17.64 5.1 19 0 C22.3 0 25.6 0 29 0 C29 9.9 29 19.8 29 30 C27.02 30 25.04 30 23 30 C22.67 24.39 22.34 18.78 22 13 C21.525625 15.248125 21.05125 17.49625 20.5625 19.8125 C19.83001093 23.28386125 19.12187476 26.63437572 18 30 C15.69 30 13.38 30 11 30 C9.68 24.06 8.36 18.12 7 12 C6.67 17.94 6.34 23.88 6 30 C4.02 30 2.04 30 0 30 C0 20.1 0 10.2 0 0 Z " fill="#F5F6F9" transform="translate(112,339)"/>
<path d="M0 0 C3.196875 -0.0825 6.39375 -0.165 9.6875 -0.25 C10.68612061 -0.28641602 11.68474121 -0.32283203 12.71362305 -0.36035156 C16.90870941 -0.41276372 19.39222204 -0.34675493 23.1015625 1.76953125 C25.3844708 4.45171364 25.76444147 6.51806246 25.57421875 10.02734375 C24.527353 13.6237193 22.03614138 14.97590575 19 17 C19.763125 17.886875 20.52625 18.77375 21.3125 19.6875 C27 26.5221946 27 26.5221946 27 30 C21.98305085 30.96818317 21.98305085 30.96818317 19 30 C16.85933228 27.33945584 15.31408824 24.62805036 13.73828125 21.6015625 C11.9855444 18.44740099 11.9855444 18.44740099 7 17 C7 21.29 7 25.58 7 30 C4.69 30 2.38 30 0 30 C0 20.1 0 10.2 0 0 Z " fill="#F2F3F7" transform="translate(407,339)"/>
<path d="M0 0 C4.7953125 -0.1546875 4.7953125 -0.1546875 9.6875 -0.3125 C11.18543091 -0.38078003 11.18543091 -0.38078003 12.71362305 -0.45043945 C17.27447001 -0.52166679 19.35267429 -0.48610496 23.10546875 2.33203125 C25 5 25 5 25.625 8 C24.80748923 11.92405171 22.92774245 13.3650318 20 16 C20 18.83340513 21.32810295 20.13132869 22.9375 22.4375 C24.74900939 25.03699457 25.99206449 26.97619347 27 30 C22.00143547 30.87694115 22.00143547 30.87694115 19 30 C15.9657594 26.86934428 12 22.54956867 12 18 C10.35 17.67 8.7 17.34 7 17 C7 21.29 7 25.58 7 30 C4.69 30 2.38 30 0 30 C0 20.1 0 10.2 0 0 Z " fill="#F2F3F7" transform="translate(251,339)"/>
<path d="M0 0 C2.97 0 5.94 0 9 0 C13.26208036 9.69448606 17.07535725 19.54918984 19 30 C16.69 30 14.38 30 12 30 C11.34 27.69 10.68 25.38 10 23 C6.04 23 2.08 23 -2 23 C-2.33 25.31 -2.66 27.62 -3 30 C-5.64 30 -8.28 30 -11 30 C-9.7366931 26.1225056 -8.46302647 22.2484902 -7.1875 18.375 C-6.83107422 17.28058594 -6.47464844 16.18617188 -6.10742188 15.05859375 C-4.38090164 9.83151413 -2.67929997 4.81766871 0 0 Z " fill="#F1F2F7" transform="translate(90,339)"/>
<path d="M0 0 C3.68623011 1.61272567 4.75355 2.630325 7 6 C7 6.99 7 7.98 7 9 C3.6875 9.1875 3.6875 9.1875 0 9 C-1.625 7.5 -1.625 7.5 -3 6 C-5.62570704 5.74930087 -5.62570704 5.74930087 -8 6 C-8 6.99 -8 7.98 -8 9 C-6.77023438 9.34611328 -6.77023438 9.34611328 -5.515625 9.69921875 C3.24946695 12.35181237 3.24946695 12.35181237 6.75 15.375 C8.30800716 18.64681503 8.67092861 20.42171406 8 24 C5.18684222 27.33137106 3.03027866 29.76777859 -1.390625 30.2734375 C-10.06599554 30.58157908 -10.06599554 30.58157908 -13.625 27.8125 C-15.98672064 25.01572556 -16.89930604 23.62498246 -17 20 C-16 19 -16 19 -13.125 18.625 C-11.578125 18.810625 -11.578125 18.810625 -10 19 C-8.125 21.5 -8.125 21.5 -7 24 C-3.535 23.505 -3.535 23.505 0 23 C0 21.68 0 20.36 0 19 C-0.81984375 18.75765625 -1.6396875 18.5153125 -2.484375 18.265625 C-4.10085937 17.76289063 -4.10085937 17.76289063 -5.75 17.25 C-7.35101563 16.76273437 -7.35101563 16.76273437 -8.984375 16.265625 C-12.17788763 14.9253425 -13.8375396 13.68001609 -16 11 C-16.625 8.0625 -16.625 8.0625 -16 5 C-11.44886129 -0.50927318 -6.92193601 -1.07469123 0 0 Z " fill="#F1F3F7" transform="translate(214,339)"/>
<path d="M0 0 C1.98 0 3.96 0 6 0 C6.01981934 0.65597168 6.03963867 1.31194336 6.06005859 1.98779297 C6.15512507 4.95061069 6.26487752 7.91270532 6.375 10.875 C6.4059375 11.90753906 6.436875 12.94007813 6.46875 14.00390625 C6.50742187 14.99003906 6.54609375 15.97617187 6.5859375 16.9921875 C6.6173584 17.90339355 6.6487793 18.81459961 6.68115234 19.75341797 C6.79882511 22.19931186 6.79882511 22.19931186 9 24 C12.465 23.505 12.465 23.505 16 23 C16.33 15.41 16.66 7.82 17 0 C19.31 0 21.62 0 24 0 C24.08736736 3.72901814 24.14051482 7.45777165 24.1875 11.1875 C24.21263672 12.24259766 24.23777344 13.29769531 24.26367188 14.38476562 C24.27333984 15.40634766 24.28300781 16.42792969 24.29296875 17.48046875 C24.3086792 18.41785889 24.32438965 19.35524902 24.34057617 20.32104492 C23.93266941 23.52961908 22.86837137 25.38479416 21 28 C16.59008594 31.07668423 11.14399843 30.64014203 6 30 C2.99802536 28.19881522 1.54833634 27.09667268 0 24 C-0.08471364 22.18658158 -0.10721083 20.37005839 -0.09765625 18.5546875 C-0.09443359 17.47832031 -0.09121094 16.40195312 -0.08789062 15.29296875 C-0.07951172 14.16503906 -0.07113281 13.03710938 -0.0625 11.875 C-0.05798828 10.73933594 -0.05347656 9.60367187 -0.04882812 8.43359375 C-0.03701615 5.62234362 -0.02054507 2.8111977 0 0 Z " fill="#F3F3F7" transform="translate(322,339)"/>
<path d="M0 0 C3.61445505 1.60642447 6.21296843 3.42593687 8 7 C8.13778248 10.65123578 7.76614677 12.98393369 5.5390625 15.9375 C2.37275 19.25590612 -0.47748515 21.76658686 -5 23 C-6.13033298 21.75482035 -7.25405036 20.50363348 -8.375 19.25 C-9.00148437 18.55390625 -9.62796875 17.8578125 -10.2734375 17.140625 C-12.67866375 14.15857979 -13.85686089 11.84094227 -14.5 8.0625 C-13.92052599 4.51322167 -12.74307745 3.03600238 -9.84765625 0.9140625 C-6.37958085 -0.80164499 -3.8334346 -0.48678535 0 0 Z " fill="#3B4C8E" transform="translate(256,174)"/>
<path d="M0 0 C0.33 0 0.66 0 1 0 C1 15.18 1 30.36 1 46 C-9 50 -9 50 -11 50 C-11.54593372 42.86086669 -9.54337019 36.36435737 -7.75 29.5 C-7.431521 28.25508789 -7.11304199 27.01017578 -6.78491211 25.72753906 C-5.86648019 22.14903888 -4.93623918 18.57387792 -4 15 C-3.76104004 14.08669922 -3.52208008 13.17339844 -3.27587891 12.23242188 C-2.20372789 8.14945853 -1.11483157 4.07155878 0 0 Z " fill="#415190" transform="translate(202,183)"/>
<path d="M0 0 C1.16595703 0.71349609 1.16595703 0.71349609 2.35546875 1.44140625 C3.14566406 1.89386719 3.93585938 2.34632813 4.75 2.8125 C6.54296875 5.00390625 6.54296875 5.00390625 6.54296875 14.00390625 C-1.37703125 14.00390625 -9.29703125 14.00390625 -17.45703125 14.00390625 C-17.45703125 10.37390625 -17.45703125 6.74390625 -17.45703125 3.00390625 C-5.34139678 -2.16543113 -5.34139678 -2.16543113 0 0 Z " fill="#F5F7FA" transform="translate(221.45703125,265.99609375)"/>
<path d="M0 0 C7.92 0 15.84 0 24 0 C24 1.65 24 3.3 24 5 C21.03 5 18.06 5 15 5 C15 13.25 15 21.5 15 30 C12.69 30 10.38 30 8 30 C8 21.75 8 13.5 8 5 C5.36 5 2.72 5 0 5 C0 3.35 0 1.7 0 0 Z " fill="#F0F1F6" transform="translate(350,339)"/>
<path d="M0 0 C7.92 0 15.84 0 24 0 C24 1.65 24 3.3 24 5 C21.03 5 18.06 5 15 5 C15 13.25 15 21.5 15 30 C12.69 30 10.38 30 8 30 C8 21.75 8 13.5 8 5 C5.36 5 2.72 5 0 5 C0 3.35 0 1.7 0 0 Z " fill="#F0F1F6" transform="translate(225,339)"/>
<path d="M0 0 C0.33 0 0.66 0 1 0 C1 6.6 1 13.2 1 20 C-6.92 20 -14.84 20 -23 20 C-23 15.71 -23 11.42 -23 7 C-18.77580349 8.6896786 -15.73225739 10.51182841 -12 13 C-11.34 13 -10.68 13 -10 13 C-8.23760282 10.86518279 -6.57452059 8.72745942 -4.9375 6.5 C-3.3154872 4.31153392 -1.67421429 2.14960847 0 0 Z " fill="#F3F5F9" transform="translate(307,260)"/>
<path d="M0 0 C0 8.25 0 16.5 0 25 C-4.32888332 23.26844667 -6.73217429 21.86481615 -10.25 19 C-11.12140625 18.29875 -11.9928125 17.5975 -12.890625 16.875 C-15 15 -15 15 -16 13 C-14.57879602 8.53828083 -12.56242083 4.9152357 -8.47265625 2.51953125 C-2.13289711 0 -2.13289711 0 0 0 Z " fill="#F9FBFE" transform="translate(308,231)"/>
<path d="M0 0 C4.41998687 1.20545096 4.41998687 1.20545096 6.4375 3.9375 C7.30536235 8.98830252 7.14575804 13.54822462 4.8125 18.125 C2.4375 19.9375 2.4375 19.9375 -0.5625 20.5 C-4.2588573 19.80693301 -5.25557111 18.86514917 -7.5625 15.9375 C-8.09375 13.0625 -8.09375 13.0625 -8.0625 9.9375 C-8.0728125 8.90625 -8.083125 7.875 -8.09375 6.8125 C-7.16912506 1.80864738 -5.04681832 -0.08854067 0 0 Z " fill="#3E4E8E" transform="translate(389.5625,344.0625)"/>
<path d="M0 0 C8 0 8 0 10.4765625 1.62109375 C12.40676459 4.63517855 12.47200193 6.50429268 12.375 10.0625 C12.36210937 11.10535156 12.34921875 12.14820313 12.3359375 13.22265625 C12 16 12 16 10 19 C7 20 7 20 0 20 C0 13.4 0 6.8 0 0 Z " fill="#3E4E8E" transform="translate(164,344)"/>
<path d="M0 0 C2.31 0 4.62 0 7 0 C7 9.9 7 19.8 7 30 C4.69 30 2.38 30 0 30 C0 20.1 0 10.2 0 0 Z " fill="#EDEFF4" transform="translate(280,339)"/>
<path d="M0 0 C2.31 0 4.62 0 7 0 C7 9.9 7 19.8 7 30 C4.69 30 2.38 30 0 30 C0 20.1 0 10.2 0 0 Z " fill="#EFF0F5" transform="translate(187,339)"/>
<path d="M0 0 C1 4.75 1 4.75 1 7 C1.99 7.66 2.98 8.32 4 9 C4 9.66 4 10.32 4 11 C0.65626525 10.44271087 -2.03312999 9.64826111 -5 8 C-4.67 9.98 -4.34 11.96 -4 14 C-5.88671875 13.73828125 -5.88671875 13.73828125 -8 13 C-9.08203125 11.29296875 -9.08203125 11.29296875 -9.8125 9.1875 C-10.06644531 8.50042969 -10.32039063 7.81335938 -10.58203125 7.10546875 C-11.06318996 4.68168795 -10.90023174 3.2923934 -10 1 C-6.36806148 -1.11863081 -3.99237419 -1.14067834 0 0 Z " fill="#D0E2F7" transform="translate(307,205)"/>
<path d="M0 0 C1.09178911 3.27536732 0.93042848 4.04413619 0.00390625 7.23046875 C-0.22490234 8.03291016 -0.45371094 8.83535156 -0.68945312 9.66210938 C-0.93630859 10.49548828 -1.18316406 11.32886719 -1.4375 12.1875 C-1.68048828 13.03248047 -1.92347656 13.87746094 -2.17382812 14.74804688 C-2.77493493 16.8342411 -3.38647834 18.91742301 -4 21 C-4.66 21 -5.32 21 -6 21 C-6.66969591 18.5424552 -7.3358768 16.08405076 -8 13.625 C-8.19078125 12.92632812 -8.3815625 12.22765625 -8.578125 11.5078125 C-10 6.2265625 -10 6.2265625 -10 4 C-6.7 2.68 -3.4 1.36 0 0 Z " fill="#435492" transform="translate(351,215)"/>
<path d="M0 0 C-0.2475 0.721875 -0.495 1.44375 -0.75 2.1875 C-1.31737069 5.1794348 -1.31737069 5.1794348 0.9375 7.8125 C1.618125 8.534375 2.29875 9.25625 3 10 C0 11 0 11 -3.1875 9.5625 C-4.115625 9.046875 -5.04375 8.53125 -6 8 C-5.67 9.65 -5.34 11.3 -5 13 C-5.99 13 -6.98 13 -8 13 C-8.67354499 11.56570999 -9.33859701 10.12742943 -10 8.6875 C-10.37125 7.88699219 -10.7425 7.08648437 -11.125 6.26171875 C-12 4 -12 4 -12 1 C-7.67265609 -1.22923777 -4.71599818 -0.92470553 0 0 Z " fill="#E8F1FB" transform="translate(296,210)"/>
<path d="M0 0 C3.125 0.375 3.125 0.375 6 1 C6 2.32 6 3.64 6 5 C6.99 5.33 7.98 5.66 9 6 C9 6.99 9 7.98 9 9 C9.66 9 10.32 9 11 9 C11 9.99 11 10.98 11 12 C1.9 14.45 1.9 14.45 -1 13 C-0.979375 11.9275 -0.95875 10.855 -0.9375 9.75 C-0.84356237 6.20424619 -0.84356237 6.20424619 -1.625 3.6875 C-1.74875 3.130625 -1.8725 2.57375 -2 2 C-1.34 1.34 -0.68 0.68 0 0 Z " fill="#D1E3F7" transform="translate(246,224)"/>
<path d="M0 0 C3 1 3 1 3.94921875 2.70703125 C4.31466797 3.74923828 4.31466797 3.74923828 4.6875 4.8125 C4.93886719 5.49957031 5.19023437 6.18664062 5.44921875 6.89453125 C6 9 6 9 6 13 C4.68 12.67 3.36 12.34 2 12 C2 10.68 2 9.36 2 8 C0.68 8.33 -0.64 8.66 -2 9 C-1.67 10.98 -1.34 12.96 -1 15 C-2.32 15.33 -3.64 15.66 -5 16 C-5.50512244 14.39743892 -6.00391627 12.79288208 -6.5 11.1875 C-6.7784375 10.29417969 -7.056875 9.40085938 -7.34375 8.48046875 C-8 6 -8 6 -8 3 C-7.01 3 -6.02 3 -5 3 C-4.67 3.99 -4.34 4.98 -4 6 C-2.68 6 -1.36 6 0 6 C-0.2784375 4.7934375 -0.2784375 4.7934375 -0.5625 3.5625 C-0.706875 2.716875 -0.85125 1.87125 -1 1 C-0.67 0.67 -0.34 0.34 0 0 Z " fill="#E3EEFA" transform="translate(234,229)"/>
<path d="M0 0 C3.78942061 0.39675558 5.35070119 2.10243111 7.75 4.9375 C8.67039063 6.00291016 8.67039063 6.00291016 9.609375 7.08984375 C11 9 11 9 11 11 C8.36 10.67 5.72 10.34 3 10 C3 11.32 3 12.64 3 14 C1.68 14.33 0.36 14.66 -1 15 C-1.02685412 12.68756208 -1.04632841 10.3750373 -1.0625 8.0625 C-1.07410156 6.77472656 -1.08570313 5.48695313 -1.09765625 4.16015625 C-1 1 -1 1 0 0 Z " fill="#E1ECFA" transform="translate(206,239)"/>
<path d="M0 0 C0 0.99 0 1.98 0 3 C-1.65 3 -3.3 3 -5 3 C-3.2984375 3.4640625 -3.2984375 3.4640625 -1.5625 3.9375 C2 5 2 5 3 6 C3.04063832 7.66617115 3.042721 9.33388095 3 11 C0.42786866 12.61949011 -0.67669159 13.04408751 -3.75 12.625 C-4.86375 12.315625 -4.86375 12.315625 -6 12 C-6.33 11.01 -6.66 10.02 -7 9 C-4.69 9.33 -2.38 9.66 0 10 C0 9.01 0 8.02 0 7 C-1.299375 7.020625 -2.59875 7.04125 -3.9375 7.0625 C-5.29165633 7.08399454 -6.64756083 7.07148199 -8 7 C-9 6 -9 6 -9.0625 3.4375 C-9.041875 2.633125 -9.02125 1.82875 -9 1 C-5.64919071 -1.10976881 -3.77897651 -1.0497157 0 0 Z " fill="#EFF5FC" transform="translate(224,235)"/>
<path d="M0 0 C0 1.32 0 2.64 0 4 C-1.65 3.67 -3.3 3.34 -5 3 C-4.34 5.31 -3.68 7.62 -3 10 C-2.34 10 -1.68 10 -1 10 C-0.67 9.01 -0.34 8.02 0 7 C1.32 7 2.64 7 4 7 C3.6875 9.375 3.6875 9.375 3 12 C0 14 0 14 -3 13.875 C-6 13 -6 13 -7.875 11.3125 C-9.35010192 8.28034606 -9.49598753 6.33020199 -9 3 C-6.24653799 -0.05940224 -4.00406942 -0.33367245 0 0 Z " fill="#EAF2FB" transform="translate(200,243)"/>
<path d="M0 0 C5.12739105 1.02547821 5.72848803 1.22190388 8.8125 4.9375 C9.41707031 5.64777344 10.02164062 6.35804688 10.64453125 7.08984375 C12 9 12 9 12 11 C9.03 10.67 6.06 10.34 3 10 C3 11.32 3 12.64 3 14 C2.01 14 1.02 14 0 14 C0 9.38 0 4.76 0 0 Z " fill="#E0ECFA" transform="translate(275,214)"/>
<path d="M0 0 C1.4370809 -0.05422947 2.87475462 -0.09289723 4.3125 -0.125 C5.11300781 -0.14820313 5.91351563 -0.17140625 6.73828125 -0.1953125 C9 0 9 0 12 2 C11.125 6.875 11.125 6.875 10 8 C8.31391034 8.07205511 6.62499341 8.08386068 4.9375 8.0625 C4.01839844 8.05347656 3.09929687 8.04445313 2.15234375 8.03515625 C1.44207031 8.02355469 0.73179687 8.01195312 0 8 C0 5.36 0 2.72 0 0 Z " fill="#415190" transform="translate(299,356)"/>
<path d="M0 0 C1.670625 0.061875 1.670625 0.061875 3.375 0.125 C3.705 1.115 4.035 2.105 4.375 3.125 C2.395 3.125 0.415 3.125 -1.625 3.125 C-1.625 5.435 -1.625 7.745 -1.625 10.125 C0.025 10.125 1.675 10.125 3.375 10.125 C3.375 9.135 3.375 8.145 3.375 7.125 C4.365 7.125 5.355 7.125 6.375 7.125 C6 9.5625 6 9.5625 5.375 12.125 C2.54616253 13.53941874 0.50123255 13.44400332 -2.625 13.125 C-4.5 11.5625 -4.5 11.5625 -5.625 9.125 C-5.9375 5.5 -5.9375 5.5 -5.625 2.125 C-3.625 0.125 -3.625 0.125 0 0 Z " fill="#EFF5FC" transform="translate(266.625,217.875)"/>
<path d="M0 0 C0.99 0 1.98 0 3 0 C3 4.62 3 9.24 3 14 C2.01 14.33 1.02 14.66 0 15 C-0.391875 14.0925 -0.78375 13.185 -1.1875 12.25 C-3.08543735 8.84680199 -4.93677533 7.31811597 -8 5 C-8 4.34 -8 3.68 -8 3 C-3.125 3.875 -3.125 3.875 -2 5 C-1.34 3.35 -0.68 1.7 0 0 Z " fill="#DFEBFA" transform="translate(315,199)"/>
<path d="M0 0 C1.45823212 -0.0270043 2.91660675 -0.04639787 4.375 -0.0625 C5.18710937 -0.07410156 5.99921875 -0.08570313 6.8359375 -0.09765625 C9 0 9 0 11 1 C11 2.65 11 4.3 11 6 C8.59454362 7.20272819 7.05003047 7.10071472 4.375 7.0625 C3.14910156 7.04896484 3.14910156 7.04896484 1.8984375 7.03515625 C0.95871094 7.01775391 0.95871094 7.01775391 0 7 C0 4.69 0 2.38 0 0 Z " fill="#3F4E8E" transform="translate(414,344)"/>
<path d="M0 0 C1.45823212 -0.0270043 2.91660675 -0.04639787 4.375 -0.0625 C5.18710937 -0.07410156 5.99921875 -0.08570313 6.8359375 -0.09765625 C9 0 9 0 11 1 C10.125 5.875 10.125 5.875 9 7 C7.48071962 7.07179964 5.95832518 7.08392007 4.4375 7.0625 C3.61121094 7.05347656 2.78492188 7.04445313 1.93359375 7.03515625 C1.29550781 7.02355469 0.65742188 7.01195312 0 7 C0 4.69 0 2.38 0 0 Z " fill="#40508F" transform="translate(258,344)"/>
<path d="M0 0 C1.258125 -0.020625 2.51625 -0.04125 3.8125 -0.0625 C4.52019531 -0.07410156 5.22789062 -0.08570313 5.95703125 -0.09765625 C8 0 8 0 11 1 C10.625 3.4375 10.625 3.4375 10 6 C6.78548731 7.60725635 3.56387464 7.05748185 0 7 C0 4.69 0 2.38 0 0 Z " fill="#40508F" transform="translate(299,344)"/>
<path d="M0 0 C0.33 0 0.66 0 1 0 C1 6.6 1 13.2 1 20 C-1.97 21.32 -4.94 22.64 -8 24 C-8.66 23.67 -9.32 23.34 -10 23 C-9.27683594 22.22076172 -9.27683594 22.22076172 -8.5390625 21.42578125 C-2.13971358 14.36037765 -0.69434276 9.41017158 0 0 Z " fill="#3C5396" transform="translate(282,180)"/>
<path d="M0 0 C0 0.99 0 1.98 0 3 C0.66 3 1.32 3 2 3 C2 3.99 2 4.98 2 6 C-7.1 8.45 -7.1 8.45 -10 7 C-10 5.35 -10 3.7 -10 2 C-9.34 2 -8.68 2 -8 2 C-8 2.99 -8 3.98 -8 5 C-6.68 5 -5.36 5 -4 5 C-4 3.68 -4 2.36 -4 1 C-2 0 -2 0 0 0 Z " fill="#ECF3FC" transform="translate(255,230)"/>
<path d="M0 0 C0.99 0 1.98 0 3 0 C3 1.65 3 3.3 3 5 C3.99 5.33 4.98 5.66 6 6 C6 8.31 6 10.62 6 13 C4.11328125 12.73828125 4.11328125 12.73828125 2 12 C0.91796875 10.29296875 0.91796875 10.29296875 0.1875 8.1875 C-0.06644531 7.50042969 -0.32039063 6.81335938 -0.58203125 6.10546875 C-1.05333812 3.73131543 -0.75212833 2.27685106 0 0 Z " fill="#E6F0FB" transform="translate(297,206)"/>
<path d="M0 0 C2.95183101 2.95183101 3.08663988 5.95511947 4 10 C1.69 10 -0.62 10 -3 10 C-2.25 3.375 -2.25 3.375 0 0 Z " fill="#465592" transform="translate(94,347)"/>
<path d="M0 0 C2.31 0.33 4.62 0.66 7 1 C6.125 5.875 6.125 5.875 5 7 C3.33382885 7.04063832 1.66611905 7.042721 0 7 C0 4.69 0 2.38 0 0 Z " fill="#485793" transform="translate(64,344)"/>
<path d="M0 0 C0.6875 2.0625 0.6875 2.0625 1 4 C-0.134375 4.12375 -1.26875 4.2475 -2.4375 4.375 C-4.2009375 4.684375 -4.2009375 4.684375 -6 5 C-6.33 5.66 -6.66 6.32 -7 7 C-7.33 5.02 -7.66 3.04 -8 1 C-3.375 -1.125 -3.375 -1.125 0 0 Z " fill="#BED7F4" transform="translate(292,210)"/>
<path d="M0 0 C-6.29718136 4.12206799 -11.46828078 5.82703776 -19 6 C-15.89579356 3.93052904 -12.9681325 2.67553856 -9.5 1.3125 C-8.3553125 0.85488281 -7.210625 0.39726562 -6.03125 -0.07421875 C-3 -1 -3 -1 0 0 Z " fill="#3D569A" transform="translate(263,249)"/>
<path d="M0 0 C0 0.99 0 1.98 0 3 C-1.11375 2.9071875 -1.11375 2.9071875 -2.25 2.8125 C-5.45383006 3.03094296 -6.64031256 3.90250005 -9 6 C-9 4.35 -9 2.7 -9 1 C-5.64919071 -1.10976881 -3.77897651 -1.0497157 0 0 Z " fill="#DFEBFA" transform="translate(224,235)"/>
<path d="M0 0 C1.32 0 2.64 0 4 0 C3.6875 2.375 3.6875 2.375 3 5 C0 7 0 7 -2.1875 6.625 C-2.785625 6.41875 -3.38375 6.2125 -4 6 C-3.525625 5.566875 -3.05125 5.13375 -2.5625 4.6875 C-0.76313043 2.97690387 -0.76313043 2.97690387 0 0 Z " fill="#D7E6F8" transform="translate(200,250)"/>
<path d="M0 0 C1.20628008 2.33214148 2.1654738 4.49642139 3 7 C2.34 7.66 1.68 8.32 1 9 C0.814375 8.360625 0.62875 7.72125 0.4375 7.0625 C-0.94246056 4.57873787 -0.94246056 4.57873787 -4.625 4.25 C-5.73875 4.1675 -6.8525 4.085 -8 4 C-7.67 3.34 -7.34 2.68 -7 2 C-6.21625 2.04125 -5.4325 2.0825 -4.625 2.125 C-1.83883881 2.28728734 -1.83883881 2.28728734 0 0 Z " fill="#5D9BE5" transform="translate(226,235)"/>
<path d="M0 0 C0 1.98 0 3.96 0 6 C-2.475 5.01 -2.475 5.01 -5 4 C-5 3.01 -5 2.02 -5 1 C-3 0 -3 0 0 0 Z " fill="#54629B" transform="translate(448,344)"/>
<path d="M0 0 C0.33 0 0.66 0 1 0 C1 1.65 1 3.3 1 5 C1.99 5 2.98 5 4 5 C4 5.66 4 6.32 4 7 C3.34 7 2.68 7 2 7 C2 8.32 2 9.64 2 11 C1.01 11 0.02 11 -1 11 C-0.67 7.37 -0.34 3.74 0 0 Z " fill="#F8FAFD" transform="translate(276,217)"/>
<path d="M0 0 C1.32 0.33 2.64 0.66 4 1 C4.33 3.31 4.66 5.62 5 8 C4.01 8 3.02 8 2 8 C0.74335022 5.09399739 0 3.20395416 0 0 Z " fill="#F3F8FD" transform="translate(286,215)"/>
<path d="M0 0 C2 1 2 1 2.8515625 3.06640625 C3.10679687 3.89011719 3.36203125 4.71382812 3.625 5.5625 C3.88539063 6.38878906 4.14578125 7.21507812 4.4140625 8.06640625 C4.60742188 8.70449219 4.80078125 9.34257812 5 10 C2.1394109 8.64062915 0.14072301 7.35479531 -2 5 C-1.34 3.35 -0.68 1.7 0 0 Z " fill="#629EE5" transform="translate(296,210)"/>
<path d="M0 0 C2 3 2 3 2 6 C3.32 6.33 4.64 6.66 6 7 C5.01 7 4.02 7 3 7 C3 7.66 3 8.32 3 9 C1.68 8.34 0.36 7.68 -1 7 C-0.67 4.69 -0.34 2.38 0 0 Z " fill="#DEEAF9" transform="translate(263,222)"/>
<path d="M0 0 C1.65 0 3.3 0 5 0 C5 1.32 5 2.64 5 4 C3.35 3.67 1.7 3.34 0 3 C0 4.65 0 6.3 0 8 C-0.33 8 -0.66 8 -1 8 C-1.125 2.25 -1.125 2.25 0 0 Z " fill="#D8E7F8" transform="translate(195,243)"/>
</svg>
